# xmcd
#
# Track frame offsets: 
#        150
#        12883
#        26963
#        39130
#        54913
#        68100
#        80345
#        99413
#        113870
#        128550
#        149050
#        161838
#        177755
#        191338
#        205815
#        219560
#        235675
#        249685
#        264445
#        278558
#        303075
#        315343
#
# Disc length: 4387 seconds
#
# Revision: 7
# Processed by: cddbd v1.5.2PL0 Copyright (c) Steve Scherf et al.
# Submitted via: ExactAudioCopyFreeDBPlugin 1.0
#
DISCID=24112116
DTITLE=Various Artist - The Complete Stax-Volt Singles, 1959-1975
DYEAR=1994
DGENRE=Soul
TTITLE0=Albert King - Crosscut Saw
TTITLE1=The Bar-Kays - Coldblooded
TTITLE2=Sir Mack Rice - Bump Meat
TTITLE3=The Newcomers - (Too Little in Common to Be Lovers) Too Much G
TTITLE3=oing to Say Goodbye
TTITLE4=The Wrecking Crew - Bump and Boogie (Part 1)
TTITLE5=The Soul Children - What's Happening Baby (Part 1)
TTITLE6=The Staple Singers - Who Made the Man
TTITLE7=Brook Benton - I Keep Thinking to Myself
TTITLE8=Eddie Floyd - I Got a Reason to Smile (Cause I Got You)
TTITLE9=Bessie Banks - Try to Leave Me If You Can (I Bet You Can't Do 
TTITLE9=It)
TTITLE10=Willie Singleton - Burning on Both Ends
TTITLE11=The Emotions - There Are More Questions Than Answers
TTITLE12=Albert King - Santa Claus Wants Some Lovin'
TTITLE13=Hot Sauce - I Can't Let You Go
TTITLE14=Frederick Knight - I Betcha Didn't Know That
TTITLE15=Sandra Wright - Lovin' You, Lovin' Me
TTITLE16=Rufus Thomas - Do the Double Bump
TTITLE17=The Temprees - Coma and Get Your Love
TTITLE18=Sir Mack Rice - Dark Skin Woman (Part 1)
TTITLE19=Shirley Brown - It Ain't No Fun
TTITLE20=Little Milton - If You Talk in Your Sleep
TTITLE21=Eddie Floyd - Talk to the Man
EXTD=
EXTT0=
EXTT1=
EXTT2=
EXTT3=
EXTT4=
EXTT5=
EXTT6=
EXTT7=
EXTT8=
EXTT9=
EXTT10=
EXTT11=
EXTT12=
EXTT13=
EXTT14=
EXTT15=
EXTT16=
EXTT17=
EXTT18=
EXTT19=
EXTT20=
EXTT21=
PLAYORDER=
